<?xml version="1.0" encoding="UTF-8" standalone="no"?><svg xmlns="http://www.w3.org/2000/svg" xmlns:xlink="http://www.w3.org/1999/xlink" contentStyleType="text/css" height="509px" preserveAspectRatio="none" style="width:958px;height:509px;background:#FFFFFF;" version="1.1" viewBox="0 0 958 509" width="958px" zoomAndPan="magnify"><defs/><g><!--MD5=[14dcd1c6f0ba10ad7a0e543e42252a17]
class Solution--><g id="elem_Solution"><rect codeLine="1" fill="#F1F1F1" height="48" id="Solution" rx="2.5" ry="2.5" style="stroke:#181818;stroke-width:0.5;" width="88" x="152.5" y="454"/><ellipse cx="167.5" cy="470" fill="#ADD1B2" rx="11" ry="11" style="stroke:#181818;stroke-width:1.0;"/><path d="M170.4688,475.6406 Q169.8906,475.9375 169.25,476.0781 Q168.6094,476.2344 167.9063,476.2344 Q165.4063,476.2344 164.0781,474.5938 Q162.7656,472.9375 162.7656,469.8125 Q162.7656,466.6875 164.0781,465.0313 Q165.4063,463.375 167.9063,463.375 Q168.6094,463.375 169.25,463.5313 Q169.9063,463.6875 170.4688,463.9844 L170.4688,466.7031 Q169.8438,466.125 169.25,465.8594 Q168.6563,465.5781 168.0313,465.5781 Q166.6875,465.5781 166,466.6563 Q165.3125,467.7188 165.3125,469.8125 Q165.3125,471.9063 166,472.9844 Q166.6875,474.0469 168.0313,474.0469 Q168.6563,474.0469 169.25,473.7813 Q169.8438,473.5 170.4688,472.9219 L170.4688,475.6406 Z " fill="#000000"/><text fill="#000000" font-family="sans-serif" font-size="14" lengthAdjust="spacing" textLength="56" x="181.5" y="474.8467">Solution</text><line style="stroke:#181818;stroke-width:0.5;" x1="153.5" x2="239.5" y1="486" y2="486"/><line style="stroke:#181818;stroke-width:0.5;" x1="153.5" x2="239.5" y1="494" y2="494"/></g><!--MD5=[08770b5ff02271603200ffd0f930842d]
class Problem--><g id="elem_Problem"><rect codeLine="2" fill="#F1F1F1" height="48" id="Problem" rx="2.5" ry="2.5" style="stroke:#181818;stroke-width:0.5;" width="89" x="276" y="454"/><ellipse cx="291" cy="470" fill="#ADD1B2" rx="11" ry="11" style="stroke:#181818;stroke-width:1.0;"/><path d="M293.9688,475.6406 Q293.3906,475.9375 292.75,476.0781 Q292.1094,476.2344 291.4063,476.2344 Q288.9063,476.2344 287.5781,474.5938 Q286.2656,472.9375 286.2656,469.8125 Q286.2656,466.6875 287.5781,465.0313 Q288.9063,463.375 291.4063,463.375 Q292.1094,463.375 292.75,463.5313 Q293.4063,463.6875 293.9688,463.9844 L293.9688,466.7031 Q293.3438,466.125 292.75,465.8594 Q292.1563,465.5781 291.5313,465.5781 Q290.1875,465.5781 289.5,466.6563 Q288.8125,467.7188 288.8125,469.8125 Q288.8125,471.9063 289.5,472.9844 Q290.1875,474.0469 291.5313,474.0469 Q292.1563,474.0469 292.75,473.7813 Q293.3438,473.5 293.9688,472.9219 L293.9688,475.6406 Z " fill="#000000"/><text fill="#000000" font-family="sans-serif" font-size="14" lengthAdjust="spacing" textLength="57" x="305" y="474.8467">Problem</text><line style="stroke:#181818;stroke-width:0.5;" x1="277" x2="364" y1="486" y2="486"/><line style="stroke:#181818;stroke-width:0.5;" x1="277" x2="364" y1="494" y2="494"/></g><!--MD5=[9bd2b2bc45261200a440e1ecb7c43192]
class Directory--><g id="elem_Directory"><rect codeLine="4" fill="#F1F1F1" height="162.0781" id="Directory" rx="2.5" ry="2.5" style="stroke:#181818;stroke-width:0.5;" width="503" x="7" y="232"/><ellipse cx="223.25" cy="248" fill="#ADD1B2" rx="11" ry="11" style="stroke:#181818;stroke-width:1.0;"/><path d="M226.2188,253.6406 Q225.6406,253.9375 225,254.0781 Q224.3594,254.2344 223.6563,254.2344 Q221.1563,254.2344 219.8281,252.5938 Q218.5156,250.9375 218.5156,247.8125 Q218.5156,244.6875 219.8281,243.0313 Q221.1563,241.375 223.6563,241.375 Q224.3594,241.375 225,241.5313 Q225.6563,241.6875 226.2188,241.9844 L226.2188,244.7031 Q225.5938,244.125 225,243.8594 Q224.4063,243.5781 223.7813,243.5781 Q222.4375,243.5781 221.75,244.6563 Q221.0625,245.7188 221.0625,247.8125 Q221.0625,249.9063 221.75,250.9844 Q222.4375,252.0469 223.7813,252.0469 Q224.4063,252.0469 225,251.7813 Q225.5938,251.5 226.2188,250.9219 L226.2188,253.6406 Z " fill="#000000"/><text fill="#000000" font-family="sans-serif" font-size="14" lengthAdjust="spacing" textLength="62" x="243.75" y="252.8467">Directory</text><line style="stroke:#181818;stroke-width:0.5;" x1="8" x2="509" y1="264" y2="264"/><text fill="#000000" font-family="sans-serif" font-size="14" lengthAdjust="spacing" textLength="100" x="13" y="280.9951">directory: Path</text><line style="stroke:#181818;stroke-width:0.5;" x1="8" x2="509" y1="288.2969" y2="288.2969"/><text fill="#000000" font-family="sans-serif" font-size="14" lengthAdjust="spacing" textLength="269" x="13" y="305.292">Iterable&lt;String&gt; fetchProblemNames()</text><text fill="#000000" font-family="sans-serif" font-size="14" lengthAdjust="spacing" textLength="304" x="13" y="321.5889">Iterable&lt;(String, Problem)&gt; fetchProblems()</text><text fill="#000000" font-family="sans-serif" font-size="14" lengthAdjust="spacing" textLength="491" x="13" y="337.8857">void storeProblems(problems: Iterable[(String, Problem)], replace: bool)</text><text fill="#000000" font-family="sans-serif" font-size="14" lengthAdjust="spacing" textLength="4" x="13" y="354.1826"> </text><text fill="#000000" font-family="sans-serif" font-size="14" lengthAdjust="spacing" textLength="302" x="13" y="370.4795">Iterable&lt;(String, Solution)&gt; fetchSolutions()</text><text fill="#000000" font-family="sans-serif" font-size="14" lengthAdjust="spacing" textLength="487" x="13" y="386.7764">void storeSolutions(solutions: Iterable[(String, Solution)], replace: bool)</text></g><!--MD5=[86ffae675379a656c7a078a4182eab61]
class Naming--><g id="elem_Naming"><rect codeLine="17" fill="#F1F1F1" height="64.2969" id="Naming" rx="2.5" ry="2.5" style="stroke:#181818;stroke-width:0.5;" width="361" x="545" y="281"/><ellipse cx="694.75" cy="297" fill="#B4A7E5" rx="11" ry="11" style="stroke:#181818;stroke-width:1.0;"/><path d="M690.6719,292.7656 L690.6719,290.6094 L698.0625,290.6094 L698.0625,292.7656 L695.5938,292.7656 L695.5938,300.8438 L698.0625,300.8438 L698.0625,303 L690.6719,303 L690.6719,300.8438 L693.1406,300.8438 L693.1406,292.7656 L690.6719,292.7656 Z " fill="#000000"/><text fill="#000000" font-family="sans-serif" font-size="14" font-style="italic" lengthAdjust="spacing" textLength="53" x="715.25" y="301.8467">Naming</text><line style="stroke:#181818;stroke-width:0.5;" x1="546" x2="905" y1="313" y2="313"/><line style="stroke:#181818;stroke-width:0.5;" x1="546" x2="905" y1="321" y2="321"/><text fill="#000000" font-family="sans-serif" font-size="14" lengthAdjust="spacing" textLength="349" x="551" y="337.9951">Set&lt;String&gt; newNames(names: Iterable&lt;String&gt;)</text></g><!--MD5=[f90fad06691b5ac759783098966d7be3]
class IntegerNaming--><g id="elem_IntegerNaming"><rect codeLine="21" fill="#F1F1F1" height="48" id="IntegerNaming" rx="2.5" ry="2.5" style="stroke:#181818;stroke-width:0.5;" width="133" x="818" y="107.5"/><ellipse cx="833" cy="123.5" fill="#ADD1B2" rx="11" ry="11" style="stroke:#181818;stroke-width:1.0;"/><path d="M835.9688,129.1406 Q835.3906,129.4375 834.75,129.5781 Q834.1094,129.7344 833.4063,129.7344 Q830.9063,129.7344 829.5781,128.0938 Q828.2656,126.4375 828.2656,123.3125 Q828.2656,120.1875 829.5781,118.5313 Q830.9063,116.875 833.4063,116.875 Q834.1094,116.875 834.75,117.0313 Q835.4063,117.1875 835.9688,117.4844 L835.9688,120.2031 Q835.3438,119.625 834.75,119.3594 Q834.1563,119.0781 833.5313,119.0781 Q832.1875,119.0781 831.5,120.1563 Q830.8125,121.2188 830.8125,123.3125 Q830.8125,125.4063 831.5,126.4844 Q832.1875,127.5469 833.5313,127.5469 Q834.1563,127.5469 834.75,127.2813 Q835.3438,127 835.9688,126.4219 L835.9688,129.1406 Z " fill="#000000"/><text fill="#000000" font-family="sans-serif" font-size="14" lengthAdjust="spacing" textLength="101" x="847" y="128.3467">IntegerNaming</text><line style="stroke:#181818;stroke-width:0.5;" x1="819" x2="950" y1="139.5" y2="139.5"/><line style="stroke:#181818;stroke-width:0.5;" x1="819" x2="950" y1="147.5" y2="147.5"/></g><!--MD5=[f973e8d6f85a875cef80ad4ccb973018]
class SourceNaming--><g id="elem_SourceNaming"><rect codeLine="24" fill="#F1F1F1" height="80.5938" id="SourceNaming" rx="2.5" ry="2.5" style="stroke:#181818;stroke-width:0.5;" width="133" x="650" y="91"/><ellipse cx="665" cy="107" fill="#ADD1B2" rx="11" ry="11" style="stroke:#181818;stroke-width:1.0;"/><path d="M667.9688,112.6406 Q667.3906,112.9375 666.75,113.0781 Q666.1094,113.2344 665.4063,113.2344 Q662.9063,113.2344 661.5781,111.5938 Q660.2656,109.9375 660.2656,106.8125 Q660.2656,103.6875 661.5781,102.0313 Q662.9063,100.375 665.4063,100.375 Q666.1094,100.375 666.75,100.5313 Q667.4063,100.6875 667.9688,100.9844 L667.9688,103.7031 Q667.3438,103.125 666.75,102.8594 Q666.1563,102.5781 665.5313,102.5781 Q664.1875,102.5781 663.5,103.6563 Q662.8125,104.7188 662.8125,106.8125 Q662.8125,108.9063 663.5,109.9844 Q664.1875,111.0469 665.5313,111.0469 Q666.1563,111.0469 666.75,110.7813 Q667.3438,110.5 667.9688,109.9219 L667.9688,112.6406 Z " fill="#000000"/><text fill="#000000" font-family="sans-serif" font-size="14" lengthAdjust="spacing" textLength="101" x="679" y="111.8467">SourceNaming</text><line style="stroke:#181818;stroke-width:0.5;" x1="651" x2="782" y1="123" y2="123"/><text fill="#000000" font-family="sans-serif" font-size="14" lengthAdjust="spacing" textLength="86" x="656" y="139.9951">prefix: String</text><text fill="#000000" font-family="sans-serif" font-size="14" lengthAdjust="spacing" textLength="112" x="656" y="156.292">internal: Naming</text><line style="stroke:#181818;stroke-width:0.5;" x1="651" x2="782" y1="163.5938" y2="163.5938"/></g><!--MD5=[5e98ec0871bb2d76de73630f80d49822]
class Creation--><g id="elem_Creation"><rect codeLine="30" fill="#F1F1F1" height="48" id="Creation" rx="2.5" ry="2.5" style="stroke:#181818;stroke-width:0.5;" width="90" x="515.5" y="107.5"/><ellipse cx="530.5" cy="123.5" fill="#ADD1B2" rx="11" ry="11" style="stroke:#181818;stroke-width:1.0;"/><path d="M533.4688,129.1406 Q532.8906,129.4375 532.25,129.5781 Q531.6094,129.7344 530.9063,129.7344 Q528.4063,129.7344 527.0781,128.0938 Q525.7656,126.4375 525.7656,123.3125 Q525.7656,120.1875 527.0781,118.5313 Q528.4063,116.875 530.9063,116.875 Q531.6094,116.875 532.25,117.0313 Q532.9063,117.1875 533.4688,117.4844 L533.4688,120.2031 Q532.8438,119.625 532.25,119.3594 Q531.6563,119.0781 531.0313,119.0781 Q529.6875,119.0781 529,120.1563 Q528.3125,121.2188 528.3125,123.3125 Q528.3125,125.4063 529,126.4844 Q529.6875,127.5469 531.0313,127.5469 Q531.6563,127.5469 532.25,127.2813 Q532.8438,127 533.4688,126.4219 L533.4688,129.1406 Z " fill="#000000"/><text fill="#000000" font-family="sans-serif" font-size="14" lengthAdjust="spacing" textLength="58" x="544.5" y="128.3467">Creation</text><line style="stroke:#181818;stroke-width:0.5;" x1="516.5" x2="604.5" y1="139.5" y2="139.5"/><line style="stroke:#181818;stroke-width:0.5;" x1="516.5" x2="604.5" y1="147.5" y2="147.5"/></g><!--MD5=[2800a7e65002960280dad0b438de35fe]
class Solving--><g id="elem_Solving"><rect codeLine="34" fill="#F1F1F1" height="48" id="Solving" rx="2.5" ry="2.5" style="stroke:#181818;stroke-width:0.5;" width="81" x="381" y="107.5"/><ellipse cx="396" cy="123.5" fill="#ADD1B2" rx="11" ry="11" style="stroke:#181818;stroke-width:1.0;"/><path d="M398.9688,129.1406 Q398.3906,129.4375 397.75,129.5781 Q397.1094,129.7344 396.4063,129.7344 Q393.9063,129.7344 392.5781,128.0938 Q391.2656,126.4375 391.2656,123.3125 Q391.2656,120.1875 392.5781,118.5313 Q393.9063,116.875 396.4063,116.875 Q397.1094,116.875 397.75,117.0313 Q398.4063,117.1875 398.9688,117.4844 L398.9688,120.2031 Q398.3438,119.625 397.75,119.3594 Q397.1563,119.0781 396.5313,119.0781 Q395.1875,119.0781 394.5,120.1563 Q393.8125,121.2188 393.8125,123.3125 Q393.8125,125.4063 394.5,126.4844 Q395.1875,127.5469 396.5313,127.5469 Q397.1563,127.5469 397.75,127.2813 Q398.3438,127 398.9688,126.4219 L398.9688,129.1406 Z " fill="#000000"/><text fill="#000000" font-family="sans-serif" font-size="14" lengthAdjust="spacing" textLength="49" x="410" y="128.3467">Solving</text><line style="stroke:#181818;stroke-width:0.5;" x1="382" x2="461" y1="139.5" y2="139.5"/><line style="stroke:#181818;stroke-width:0.5;" x1="382" x2="461" y1="147.5" y2="147.5"/></g><!--MD5=[71e8807956d33805e77353b9d7e2df39]
class Evaluation--><g id="elem_Evaluation"><rect codeLine="38" fill="#F1F1F1" height="48" id="Evaluation" rx="2.5" ry="2.5" style="stroke:#181818;stroke-width:0.5;" width="102" x="207.5" y="107.5"/><ellipse cx="222.5" cy="123.5" fill="#ADD1B2" rx="11" ry="11" style="stroke:#181818;stroke-width:1.0;"/><path d="M225.4688,129.1406 Q224.8906,129.4375 224.25,129.5781 Q223.6094,129.7344 222.9063,129.7344 Q220.4063,129.7344 219.0781,128.0938 Q217.7656,126.4375 217.7656,123.3125 Q217.7656,120.1875 219.0781,118.5313 Q220.4063,116.875 222.9063,116.875 Q223.6094,116.875 224.25,117.0313 Q224.9063,117.1875 225.4688,117.4844 L225.4688,120.2031 Q224.8438,119.625 224.25,119.3594 Q223.6563,119.0781 223.0313,119.0781 Q221.6875,119.0781 221,120.1563 Q220.3125,121.2188 220.3125,123.3125 Q220.3125,125.4063 221,126.4844 Q221.6875,127.5469 223.0313,127.5469 Q223.6563,127.5469 224.25,127.2813 Q224.8438,127 225.4688,126.4219 L225.4688,129.1406 Z " fill="#000000"/><text fill="#000000" font-family="sans-serif" font-size="14" lengthAdjust="spacing" textLength="70" x="236.5" y="128.3467">Evaluation</text><line style="stroke:#181818;stroke-width:0.5;" x1="208.5" x2="308.5" y1="139.5" y2="139.5"/><line style="stroke:#181818;stroke-width:0.5;" x1="208.5" x2="308.5" y1="147.5" y2="147.5"/></g><g id="elem_GMN20"><path d="M521,6 L521,31.1328 A0,0 0 0 0 521,31.1328 L556.5,31.1328 L560.5,107.12 L564.5,31.1328 L600,31.1328 A0,0 0 0 0 600,31.1328 L600,16 L590,6 L521,6 A0,0 0 0 0 521,6 " fill="#FEFFDD" style="stroke:#181818;stroke-width:0.5;"/><path d="M590,6 L590,16 L600,16 L590,6 " fill="#FEFFDD" style="stroke:#181818;stroke-width:0.5;"/><text fill="#000000" font-family="sans-serif" font-size="13" lengthAdjust="spacing" textLength="58" x="527" y="23.0669">Argparse</text></g><g id="elem_GMN23"><path d="M382,6 L382,31.1328 A0,0 0 0 0 382,31.1328 L417.5,31.1328 L421.5,107.12 L425.5,31.1328 L461,31.1328 A0,0 0 0 0 461,31.1328 L461,16 L451,6 L382,6 A0,0 0 0 0 382,6 " fill="#FEFFDD" style="stroke:#181818;stroke-width:0.5;"/><path d="M451,6 L451,16 L461,16 L451,6 " fill="#FEFFDD" style="stroke:#181818;stroke-width:0.5;"/><text fill="#000000" font-family="sans-serif" font-size="13" lengthAdjust="spacing" textLength="58" x="388" y="23.0669">Argparse</text></g><g id="elem_GMN26"><path d="M219,6 L219,31.1328 A0,0 0 0 0 219,31.1328 L254.5,31.1328 L258.5,107.12 L262.5,31.1328 L298,31.1328 A0,0 0 0 0 298,31.1328 L298,16 L288,6 L219,6 A0,0 0 0 0 219,6 " fill="#FEFFDD" style="stroke:#181818;stroke-width:0.5;"/><path d="M288,6 L288,16 L298,16 L288,6 " fill="#FEFFDD" style="stroke:#181818;stroke-width:0.5;"/><text fill="#000000" font-family="sans-serif" font-size="13" lengthAdjust="spacing" textLength="58" x="225" y="23.0669">Argparse</text></g><!--MD5=[bf70cdd1996155ff71e0b5c29eb238cb]
link Directory to Problem--><g id="link_Directory_Problem"><path codeLine="14" d="M288.96,394.07 C296.44,413.74 303.96,433.53 309.79,448.84 " fill="none" id="Directory-to-Problem" style="stroke:#181818;stroke-width:1.0;"/><polygon fill="#181818" points="311.7,453.85,312.249,444.0165,309.9272,449.1748,304.7688,446.853,311.7,453.85" style="stroke:#181818;stroke-width:1.0;"/></g><!--MD5=[573beaedeb4e7fce5a8cda596703701a]
link Directory to Solution--><g id="link_Directory_Solution"><path codeLine="15" d="M228.04,394.07 C220.56,413.74 213.04,433.53 207.21,448.84 " fill="none" id="Directory-to-Solution" style="stroke:#181818;stroke-width:1.0;"/><polygon fill="#181818" points="205.3,453.85,212.2312,446.853,207.0728,449.1748,204.751,444.0165,205.3,453.85" style="stroke:#181818;stroke-width:1.0;"/></g><!--MD5=[c20b58f2d19ed7be052aa0ca1ef6ae27]
link IntegerNaming to Naming--><g id="link_IntegerNaming_Naming"><path codeLine="22" d="M864.04,155.6 C839.53,183.27 797.86,230.31 766.61,265.59 " fill="none" id="IntegerNaming-to-Naming" style="stroke:#181818;stroke-width:1.0;"/><polygon fill="none" points="771.59,270.53,753.08,280.86,761.11,261.25,771.59,270.53" style="stroke:#181818;stroke-width:1.0;"/></g><!--MD5=[692c9ca3d472a39337df7e1dd2cf4ae1]
link SourceNaming to Naming--><g id="link_SourceNaming_Naming"><path codeLine="28" d="M718.5,172.34 C719.81,198.43 721.53,232.77 722.94,260.87 " fill="none" id="SourceNaming-to-Naming" style="stroke:#181818;stroke-width:1.0;"/><polygon fill="none" points="729.93,260.58,723.94,280.9,715.95,261.28,729.93,260.58" style="stroke:#181818;stroke-width:1.0;"/></g><!--MD5=[14f4fee94cf3e8c16568a9a6dabb9314]
link Creation to Directory--><g id="link_Creation_Directory"><path codeLine="31" d="M521.64,155.6 C489.92,174.45 443.09,202.29 397.69,229.27 " fill="none" id="Creation-to-Directory" style="stroke:#181818;stroke-width:1.0;"/><polygon fill="#181818" points="393.3,231.88,403.08,230.7178,397.5975,229.3243,398.991,223.8418,393.3,231.88" style="stroke:#181818;stroke-width:1.0;"/></g><!--MD5=[4e67c85df4284edef7b2bb37ebf75d62]
link Creation to Naming--><g id="link_Creation_Naming"><path codeLine="32" d="M581.73,155.6 C610.03,186.39 660.37,241.15 693.34,277.02 " fill="none" id="Creation-to-Naming" style="stroke:#181818;stroke-width:1.0;"/><polygon fill="#181818" points="696.87,280.86,693.7273,271.526,693.4875,277.1778,687.8357,276.938,696.87,280.86" style="stroke:#181818;stroke-width:1.0;"/></g><!--MD5=[d892ac4837a70a170e06a1f224306c24]
link Solving to Directory--><g id="link_Solving_Directory"><path codeLine="35" d="M400.52,155.6 C383.72,174.1 359.06,201.26 334.99,227.77 " fill="none" id="Solving-to-Directory" style="stroke:#181818;stroke-width:1.0;"/><polygon fill="#181818" points="331.44,231.68,340.45,227.7026,334.7998,227.9771,334.5253,222.3269,331.44,231.68" style="stroke:#181818;stroke-width:1.0;"/></g><!--MD5=[4bf701b55236320f08cbbb72d8ec1ece]
link Solving to Naming--><g id="link_Solving_Naming"><path codeLine="36" d="M460.62,155.6 C513.4,186.76 607.76,242.48 668.45,278.31 " fill="none" id="Solving-to-Naming" style="stroke:#181818;stroke-width:1.0;"/><polygon fill="#181818" points="672.76,280.86,667.0493,272.8358,668.4562,278.3149,662.9771,279.7219,672.76,280.86" style="stroke:#181818;stroke-width:1.0;"/></g><!--MD5=[65985b1f598b82285151f3e60edc5da2]
link Evaluation to Directory--><g id="link_Evaluation_Directory"><path codeLine="39" d="M258.5,155.6 C258.5,173.8 258.5,200.37 258.5,226.47 " fill="none" id="Evaluation-to-Directory" style="stroke:#181818;stroke-width:1.0;"/><polygon fill="#181818" points="258.5,231.68,262.5,222.68,258.5,226.68,254.5,222.68,258.5,231.68" style="stroke:#181818;stroke-width:1.0;"/></g><!--MD5=[663ad2a22ce291318827074f8137b91d]
@startuml
class Solution
class Problem

class Directory {
    directory: Path

    Iterable<String> fetchProblemNames()
    Iterable<(String, Problem)> fetchProblems()
    void storeProblems(problems: Iterable[(String, Problem)], replace: bool)

    Iterable<(String, Solution)> fetchSolutions()
    void storeSolutions(solutions: Iterable[(String, Solution)], replace: bool)
}
Directory - -> Problem
Directory - -> Solution

interface Naming {
    Set<String> newNames(names: Iterable<String>)
}

class IntegerNaming {}
IntegerNaming - -|> Naming

class SourceNaming {
    prefix: String
    internal: Naming
}
SourceNaming - -|> Naming

class Creation
Creation - -> Directory
Creation - -> Naming

class Solving
Solving - -> Directory
Solving - -> Naming

class Evaluation
Evaluation - -> Directory

note top of Creation: Argparse
note top of Solving: Argparse
note top of Evaluation: Argparse
@enduml

PlantUML version 1.2022.5(Sat Apr 30 12:55:52 CEST 2022)
(GPL source distribution)
Java Runtime: OpenJDK Runtime Environment
JVM: OpenJDK 64-Bit Server VM
Default Encoding: UTF-8
Language: de
Country: DE
--></g></svg>